<svg xmlns="http://www.w3.org/2000/svg" viewBox="0 0 193 57" width="256" height="76">
	<style>
		tspan { white-space:pre }
		.shp0 { fill: black } 
	</style>
	<path id="Layer" fill-rule="evenodd" class="shp0" d="M17.49 5.99C17.58 10.93 17.54 19.14 17.54 21.95C17.53 25 17.54 30.36 17.42 33.73C17.32 36.53 16.78 39.11 15.24 41.26C13.96 43.05 11.75 44.16 11.23 43.69C10.77 43.27 11.38 42.19 11.75 40.58C12.14 39 12.34 37.41 12.34 32.33C12.34 28.58 12.46 10.61 12.46 8.6C12.46 7.49 12.48 6.89 11.96 7.32C9.17 9.66 6.95 14.99 7.45 19.77C7.84 23.46 9.76 23.85 9.09 25.02C8.52 26 1.59 22.99 3.26 15.87C4.57 10.24 8.74 5.77 12.53 4.18C14.11 3.52 17.47 4.79 17.49 5.99ZM187.96 32.89C187.3 37.7 185.33 39.52 182.93 39.52C181.8 39.52 178.58 38.97 177.45 34.07C176.64 30.46 176.84 23.85 176.93 21.83C176.93 21.77 176.86 21.49 176.7 21.85C176.27 22.82 175.08 25.47 174.36 28.41C173.28 32.9 173.18 36.03 173.24 36.53C173.35 37.57 172.11 37.73 171.52 37.73C170.6 37.73 169.45 37.66 168.53 36.03C168.2 35.46 167.78 33.65 167.47 30.6C167.04 26.45 166.98 23.37 166.96 22.32C166.96 21.8 166.64 21.88 166.37 22.37C165.88 23.25 164.85 25.02 163.74 29.57C163.08 32.3 163.14 35.95 163.03 38.13C162.99 38.96 162.68 39.28 162.28 39.36C161.7 39.48 160.14 39.75 158.61 39.18C158.27 39.05 157.79 38.78 157.71 38.57C157.57 38.22 157.49 37.13 157.44 35.79C156.15 38.84 154.56 39.52 152.88 39.52C151.28 39.52 148.47 38.41 147.89 34.8C147.89 34.8 147.55 35.52 146.94 36.36C144.25 40.04 138.94 40.97 136.21 36.63C136.07 36.42 135.95 36.19 135.83 35.95C134.86 38.08 133.05 39.51 131.15 39.51C129.53 39.51 126.81 38.41 125.59 35C123.82 30.02 125.76 22.54 125.87 22.08C125.98 21.7 125.82 21.59 125.3 21.62C123.68 21.73 122.15 21.71 122.15 21.71C121.26 24.55 119.51 28.19 117.86 30.9C116.37 33.39 114.73 35.52 113.28 37.19C113.31 39.39 113.35 41.43 113.38 43.04C113.44 47.05 112.6 51.11 111.31 53C109.85 55.15 107.48 56.68 104.71 56.46C102.09 56.25 98.64 54.67 98.93 50.41C99.16 47.08 102.3 44.21 106.42 40.43C107.36 39.56 108.88 38.17 108.88 38.17L108.8 35.88C108.71 36.02 108.6 36.17 108.48 36.36C105.8 40.04 100.48 40.97 97.74 36.63C97.55 36.34 97.39 36.04 97.23 35.72C95.93 38.65 94.08 39.51 92.27 39.51C90.67 39.51 87.86 38.28 87.47 34.8C87.47 34.8 87.34 35.21 86.51 36.36C83.85 40.04 78.52 40.97 75.78 36.63C75.21 35.72 74.76 34.65 74.46 33.42C73.42 36.44 71.03 39.52 68.65 39.52C65.09 39.52 63.05 36.38 62.56 30.84C59.88 37.26 56.01 39.75 51.19 39.58C49.95 39.54 48.01 39.18 47.11 38.77C46.06 38.31 45.05 37.78 45.32 36.76C45.61 35.73 46.1 34.89 46.98 34.23C47.32 33.98 47.88 34.05 48.25 34.29C48.94 34.74 49.22 35.05 49.9 35.45C52.24 36.82 53.55 35.41 53.9 34.04C54.36 32.25 53.67 30.36 51.58 28.38C50.68 27.53 49.77 26.73 48.98 25.99C47.82 27.93 46.22 30.62 44.57 33.37C41.92 37.77 39.45 39.51 37.7 39.51C35.41 39.51 33.81 37.88 34.14 29.07C34.27 25.78 34.45 21.91 34.51 20.35C34.52 20 34.27 20.01 34.05 20.23C32.82 21.46 30.2 24.9 28.19 31.98C26.9 36.53 26.89 37.74 26.74 38.87C26.61 39.8 24.15 39.5 23.7 39.4C23.22 39.29 22.93 39.06 22.68 38.75C22.42 38.43 22.22 37.89 22.09 37.24C21.96 36.58 21.93 35.08 21.93 33.8L22.03 16.94C22.03 16.39 22.33 16.11 22.93 16.11C24.16 16.11 25.56 16.69 26.09 16.97C26.4 17.14 26.53 17.38 26.53 17.64L26.46 28.42C26.46 28.42 27.23 26.36 27.62 25.23C30.72 16.26 34 16.11 35.14 16.11C35.9 16.11 37.21 16.86 37.82 17.23C38.84 17.86 39.44 18.55 39.4 19.75C39.26 23.4 39.08 26.93 39.08 29.27C39.08 31.99 39.07 34.89 40.02 34.89C41.21 34.89 42.79 32.03 44.89 28.41C45.64 27.11 46.53 25.43 47.17 24.19L46.93 23.88C45.85 22.54 45.57 21.25 46.11 19.51C46.82 17.26 49.18 15.15 52.05 15.81C53.79 16.21 53.76 18.02 53.05 19.6C52.05 21.83 50.92 22.95 50.92 22.95C52.87 24.37 54.6 25.69 55.49 26.39C57.88 28.26 59.2 30.48 58.55 33.45C58.55 33.45 61.56 31.03 62.43 26.56L62.43 25.78C62.43 23.26 62.5 15.07 62.5 15.07C60.94 15.02 58.59 14.97 57.24 14.92C56.06 14.88 56.98 11.23 57.83 11.23C58.74 11.23 61.85 11.41 62.77 11.41C62.77 11.41 62.86 6.74 63.02 5.15C63.13 4.1 63.69 3.85 64.94 4.11C65.84 4.29 66.6 4.46 67.45 4.82C67.8 4.97 68.4 5.21 68.37 5.69C68.32 6.25 68.12 11.59 68.12 11.59C68.12 11.59 70.38 11.76 71.2 11.78C72.17 11.8 74.61 11.93 74.95 12.07C75.72 12.41 75.01 15.06 74.26 15.09C72.8 15.17 71.79 15.14 70.69 15.15C70.25 15.16 68.04 15.19 68.04 15.19C67.98 15.97 67.62 24.03 67.62 29.68C67.62 33.93 68.61 35.92 69.64 35.92C71.39 35.92 73.53 32.49 74.02 29.52C74.01 28.48 74.08 27.36 74.22 26.16C74.73 22.02 75.72 20.15 76.94 18.47C78.81 15.89 81.25 15.26 83.6 15.96C84.48 16.21 85.79 17.11 86.61 18.39L86.61 17.47C86.61 17.06 87.03 16.53 87.63 16.48C88.09 16.45 88.69 16.5 89.37 16.67C90.03 16.82 91.45 17.23 91.45 18.04C91.46 18.32 91.4 19.49 91.37 21.02C91.32 23.68 91.2 25.27 91.2 28.94C91.2 35.24 92.09 36.61 93.64 36.61C94.86 36.61 95.94 34.68 96.32 32.83C95.97 30.98 95.92 28.79 96.17 26.19C96.45 23.42 97.42 20.54 98.89 18.47C100.74 15.88 103.2 15.26 105.56 15.96C106.43 16.21 107.75 17.11 108.56 18.39L108.56 17.55C108.54 16.93 109.15 16.4 110.14 16.48C110.92 16.54 111.68 16.72 112.33 16.97C113.06 17.25 113.4 17.48 113.42 18.08C113.42 18.35 113.35 19.49 113.32 21.02C113.29 22.58 113.22 26.92 113.23 32.42C113.23 32.81 113.23 33.2 113.24 33.58C114.01 32.54 114.6 31.56 115.37 30.23C116.83 27.76 118.22 24.34 118.8 21.72C118.8 21.72 117.05 20.71 117.34 18.57C117.51 17.23 117.98 16.48 118.68 15.84C119.83 14.78 123.45 14.51 123.06 17.84C122.99 18.47 122.9 18.83 122.9 18.83C124.39 18.61 126.03 18.32 127.17 18.05C128.78 17.68 129.9 17.99 130.42 18.58C130.99 19.24 131.22 19.92 130.94 21.22C130.28 24.28 129.68 26.39 129.59 29.4C129.46 33.97 130.62 36.61 132.25 36.61C133.36 36.61 134.38 35.64 134.94 33.27C134.48 31.16 134.39 28.68 134.65 26.22C135 22.87 135.89 20.54 137.36 18.47C139.21 15.88 141.68 15.26 144.03 15.96C144.91 16.21 146.22 17.11 147.04 18.39L147.04 17.51C147.04 16.93 147.48 16.52 148.11 16.48C148.56 16.46 149.14 16.51 149.8 16.67C150.45 16.82 151.87 17.23 151.88 18.04C151.89 18.32 151.82 19.49 151.79 21.02C151.74 23.68 151.63 25.27 151.63 28.94C151.63 35.24 152.37 36.61 153.92 36.61C155.48 36.61 156.91 33.32 157.34 30.89L157.34 30.14C157.34 24.86 157.48 17.31 157.48 17.23C157.48 16.58 157.66 16.14 158.46 16.14C159.1 16.14 160.63 16.51 161.41 16.74C161.58 16.79 162.14 17.06 162.14 17.89C162.13 20.1 162.13 25.9 162.13 25.9C162.13 25.9 162.62 24.44 163.32 22.29C164.2 19.64 165.03 17.42 165.75 16.58C166.59 15.57 168.9 16.43 169.66 16.9C170.85 17.65 171.07 18.56 171.08 19.62C171.12 25.08 171.42 27.68 171.55 29.11C171.57 29.32 171.69 29.31 171.69 29.21C171.9 27.43 172.8 23.03 175.1 17.5C175.91 15.53 177.54 16.14 178.66 16.54C181.27 17.49 181.53 18.45 181.48 19.42C181.23 24.15 181.2 28.91 181.39 31.49C181.65 34.78 182.63 36.42 183.72 36.42C184.69 36.42 185.45 35.67 186.16 32.35C186.37 31.4 186.63 30.84 187.17 30.84C187.88 30.84 188.12 31.73 187.96 32.89ZM83.51 19.46C81.32 19.25 79.92 21.5 79.37 24.69C78.98 26.84 78.67 30.81 79.59 33.73C80.84 37.76 83.69 36.88 85.14 34.08C85.93 32.54 86.43 30.41 86.56 27.87C86.85 22.57 85.75 19.68 83.51 19.46ZM108.51 27.9C108.83 21.94 107.72 19.46 105.46 19.46C103.14 19.46 101.85 22.18 101.31 25.12C100.9 27.37 100.7 30.95 101.53 33.73C102.75 37.78 105.68 36.9 107.08 34.08C107.76 32.72 108.39 30.3 108.51 27.9ZM109.09 41.58C105.52 45.11 103.07 48 102.55 50.83C101.97 54.02 104.79 55.22 106.9 53.64C108.37 52.52 109.05 48.68 109.09 44.29C109.1 42.38 109.09 41.58 109.09 41.58ZM143.93 19.46C141.66 19.25 140.28 21.62 139.79 24.75C139.3 27.83 139.33 31.52 140.01 33.73C141.25 37.77 144.15 36.9 145.56 34.08C146.28 32.62 146.87 30.57 146.99 27.93C147.24 22.57 146.19 19.67 143.93 19.46Z" />
</svg>